<svg xmlns="http://www.w3.org/2000/svg" xmlns:xlink="http://www.w3.org/1999/xlink" width="2000" zoomAndPan="magnify" viewBox="0 0 1500 1499.999933" height="2000" preserveAspectRatio="xMidYMid meet" version="1.0"><defs><clipPath id="8c4b3c275c"><path d="M 941 475 L 954.449219 475 L 954.449219 958 L 941 958 Z M 941 475 " clip-rule="nonzero"/></clipPath><clipPath id="09c7aad64b"><path d="M 545.699219 877 L 557 877 L 557 916 L 545.699219 916 Z M 545.699219 877 " clip-rule="nonzero"/></clipPath></defs><g clip-path="url(#8c4b3c275c)"><path fill="#61edbf" d="M 941.730469 911.097656 C 941.730469 911.851562 942.433594 942.773438 943.5625 953.609375 C 944.128906 959.171875 944.808594 959.652344 945.550781 952.847656 C 946.296875 946.398438 947.113281 932.660156 947.980469 917.96875 C 948.003906 917.539062 948.035156 917.121094 948.054688 916.699219 C 948.925781 902.011719 949.742188 887.925781 950.484375 880.839844 C 951.226562 873.402344 951.90625 872.972656 952.464844 877.402344 C 953.59375 885.96875 954.296875 913.78125 954.296875 911.078125 C 954.296875 781.59375 954.296875 652.109375 954.296875 522.636719 C 954.296875 521.894531 953.605469 490.972656 952.464844 480.125 C 951.90625 474.554688 951.226562 474.082031 950.484375 480.878906 C 949.742188 487.328125 948.925781 501.054688 948.054688 515.757812 C 948.035156 516.175781 948.011719 516.59375 947.980469 517.023438 C 947.121094 531.714844 946.296875 545.808594 945.550781 552.886719 C 944.808594 560.320312 944.128906 560.75 943.5625 556.320312 C 942.433594 547.757812 941.730469 519.945312 941.730469 522.648438 C 941.730469 652.140625 941.730469 781.613281 941.730469 911.097656 Z M 941.730469 911.097656 " fill-opacity="1" fill-rule="nonzero"/></g><path fill="#61edbf" d="M 922.023438 944.785156 C 922.023438 945.589844 922.714844 979.160156 923.855469 990.917969 C 924.421875 996.960938 925.09375 997.484375 925.847656 990.101562 C 926.589844 983.109375 927.40625 968.195312 928.265625 952.25 C 928.285156 951.800781 928.316406 951.339844 928.339844 950.878906 C 929.195312 934.929688 930.011719 919.644531 930.765625 911.957031 C 931.511719 903.894531 932.203125 903.421875 932.757812 908.230469 C 933.886719 917.527344 934.589844 947.714844 934.589844 944.785156 C 934.589844 804.253906 934.589844 663.722656 934.589844 523.191406 C 934.589844 522.386719 933.878906 488.816406 932.757812 477.046875 C 932.191406 471.003906 931.511719 470.480469 930.765625 477.875 C 930.023438 484.867188 929.207031 499.777344 928.339844 515.726562 C 928.316406 516.1875 928.285156 516.636719 928.265625 517.097656 C 927.40625 533.046875 926.589844 548.332031 925.847656 556.019531 C 925.09375 564.089844 924.421875 564.550781 923.855469 559.746094 C 922.726562 550.449219 922.023438 520.261719 922.023438 523.191406 C 922.023438 663.722656 922.023438 804.253906 922.023438 944.785156 Z M 922.023438 944.785156 " fill-opacity="1" fill-rule="nonzero"/><path fill="#61edbf" d="M 902.296875 972.910156 C 902.296875 973.714844 903 1007.285156 904.128906 1019.054688 C 904.695312 1025.097656 905.363281 1025.621094 906.109375 1018.226562 C 906.851562 1011.234375 907.679688 996.320312 908.539062 980.375 C 908.558594 979.914062 908.589844 979.464844 908.609375 979.003906 C 909.46875 963.054688 910.296875 947.769531 911.039062 940.082031 C 911.785156 932.007812 912.453125 931.546875 913.03125 936.355469 C 914.148438 945.664062 914.851562 975.839844 914.851562 972.910156 C 914.851562 832.378906 914.851562 691.847656 914.851562 551.316406 C 914.851562 550.5 914.148438 516.941406 913.03125 505.171875 C 912.453125 499.140625 911.785156 498.605469 911.039062 505.988281 C 910.296875 512.992188 909.46875 527.894531 908.609375 543.839844 C 908.589844 544.300781 908.558594 544.75 908.539062 545.210938 C 907.679688 561.160156 906.863281 576.449219 906.109375 584.132812 C 905.363281 592.207031 904.683594 592.667969 904.128906 587.859375 C 903 578.5625 902.296875 548.375 902.296875 551.304688 C 902.296875 691.847656 902.296875 832.378906 902.296875 972.910156 Z M 902.296875 972.910156 " fill-opacity="1" fill-rule="nonzero"/><path fill="#61edbf" d="M 882.621094 987.453125 C 882.621094 988.910156 883.3125 1000.980469 884.453125 1005.597656 C 885.019531 1007.957031 885.691406 1008.4375 886.433594 1006.226562 C 887.1875 1004.144531 888.003906 999.371094 888.863281 994.144531 C 888.882812 994.039062 888.894531 993.925781 888.925781 993.820312 C 889.785156 988.59375 890.601562 983.453125 891.355469 980.710938 C 892.097656 977.839844 892.777344 977.359375 893.332031 978.542969 C 894.464844 980.792969 895.167969 989.601562 895.167969 987.453125 C 895.167969 944.375 895.167969 901.277344 895.167969 858.199219 C 895.167969 856.746094 894.464844 844.671875 893.332031 840.054688 C 892.769531 837.699219 892.097656 837.214844 891.355469 839.425781 C 890.609375 841.507812 889.792969 846.285156 888.925781 851.507812 C 888.894531 851.613281 888.882812 851.730469 888.863281 851.832031 C 888.003906 857.058594 887.1875 862.199219 886.433594 864.941406 C 885.691406 867.824219 885.019531 868.292969 884.453125 867.121094 C 883.324219 864.859375 882.621094 856.054688 882.621094 858.199219 C 882.621094 901.289062 882.621094 944.375 882.621094 987.453125 Z M 882.621094 987.453125 " fill-opacity="1" fill-rule="nonzero"/><path fill="#61edbf" d="M 862.988281 997.085938 C 862.988281 998.636719 863.691406 1011.566406 864.820312 1016.519531 C 865.375 1019.042969 866.058594 1019.558594 866.800781 1017.191406 C 867.542969 1014.949219 868.359375 1009.839844 869.230469 1004.25 C 869.25 1004.132812 869.269531 1004.019531 869.292969 1003.894531 C 870.152344 998.300781 870.976562 992.804688 871.722656 989.863281 C 872.464844 986.78125 873.144531 986.269531 873.699219 987.535156 C 874.832031 989.957031 875.53125 999.390625 875.53125 997.085938 C 875.53125 950.941406 875.53125 904.804688 875.53125 858.660156 C 875.53125 857.101562 874.832031 844.179688 873.699219 839.226562 C 873.144531 836.691406 872.464844 836.191406 871.722656 838.554688 C 870.976562 840.785156 870.160156 845.894531 869.292969 851.5 C 869.269531 851.613281 869.25 851.730469 869.230469 851.855469 C 868.371094 857.445312 867.542969 862.941406 866.800781 865.886719 C 866.058594 868.964844 865.375 869.464844 864.820312 868.210938 C 863.691406 865.792969 862.988281 856.355469 862.988281 858.660156 C 862.988281 904.796875 862.988281 950.941406 862.988281 997.085938 Z M 862.988281 997.085938 " fill-opacity="1" fill-rule="nonzero"/><path fill="#61edbf" d="M 843.3125 1001.484375 C 843.3125 1003.042969 844.003906 1015.964844 845.144531 1020.90625 C 845.710938 1023.441406 846.382812 1023.953125 847.125 1021.578125 C 847.867188 1019.347656 848.695312 1014.226562 849.554688 1008.636719 C 849.566406 1008.519531 849.597656 1008.394531 849.617188 1008.28125 C 850.476562 1002.6875 851.292969 997.179688 852.046875 994.25 C 852.789062 991.171875 853.460938 990.65625 854.027344 991.925781 C 855.15625 994.34375 855.859375 1003.777344 855.859375 1001.472656 C 855.859375 955.328125 855.859375 909.191406 855.859375 863.046875 C 855.859375 861.488281 855.15625 848.566406 854.027344 843.613281 C 853.460938 841.089844 852.789062 840.578125 852.046875 842.945312 C 851.304688 845.175781 850.476562 850.292969 849.617188 855.886719 C 849.597656 856 849.574219 856.117188 849.554688 856.230469 C 848.695312 861.824219 847.867188 867.332031 847.125 870.273438 C 846.382812 873.339844 845.710938 873.855469 845.144531 872.597656 C 844.015625 870.179688 843.3125 860.746094 843.3125 863.046875 C 843.3125 909.203125 843.3125 955.339844 843.3125 1001.484375 Z M 843.3125 1001.484375 " fill-opacity="1" fill-rule="nonzero"/><path fill="#61edbf" d="M 823.640625 1007.042969 C 823.640625 1008.605469 824.339844 1021.535156 825.472656 1026.476562 C 826.035156 1029.011719 826.695312 1029.515625 827.449219 1027.148438 C 828.203125 1024.917969 829.03125 1019.808594 829.878906 1014.207031 C 829.902344 1014.089844 829.921875 1013.976562 829.941406 1013.851562 C 830.800781 1008.257812 831.617188 1002.75 832.371094 999.820312 C 833.113281 996.742188 833.796875 996.226562 834.359375 997.496094 C 835.492188 999.914062 836.195312 1009.347656 836.195312 1007.042969 C 836.195312 960.898438 836.195312 914.765625 836.195312 868.628906 C 836.195312 867.070312 835.492188 854.148438 834.359375 849.195312 C 833.796875 846.660156 833.113281 846.15625 832.371094 848.523438 C 831.628906 850.753906 830.8125 855.863281 829.941406 861.464844 C 829.921875 861.582031 829.902344 861.695312 829.878906 861.8125 C 829.019531 867.402344 828.203125 872.910156 827.449219 875.84375 C 826.707031 878.921875 826.035156 879.425781 825.472656 878.167969 C 824.339844 875.75 823.640625 866.316406 823.640625 868.617188 C 823.640625 914.765625 823.640625 960.910156 823.640625 1007.042969 Z M 823.640625 1007.042969 " fill-opacity="1" fill-rule="nonzero"/><path fill="#61edbf" d="M 803.953125 1007.546875 C 803.953125 1008.992188 804.664062 1020.992188 805.796875 1025.589844 C 806.351562 1027.933594 807.023438 1028.40625 807.777344 1026.207031 C 808.519531 1024.132812 809.335938 1019.390625 810.203125 1014.195312 C 810.226562 1014.089844 810.234375 1013.976562 810.269531 1013.871094 C 811.125 1008.679688 811.941406 1003.566406 812.695312 1000.84375 C 813.441406 997.988281 814.109375 997.515625 814.675781 998.6875 C 815.816406 1000.917969 816.519531 1009.683594 816.519531 1007.546875 C 816.519531 964.730469 816.519531 921.90625 816.519531 879.101562 C 816.519531 877.65625 815.816406 865.65625 814.675781 861.070312 C 814.109375 858.722656 813.449219 858.253906 812.695312 860.441406 C 811.941406 862.515625 811.125 867.257812 810.269531 872.449219 C 810.246094 872.554688 810.226562 872.671875 810.203125 872.773438 C 809.335938 877.96875 808.519531 883.078125 807.777344 885.800781 C 807.03125 888.648438 806.363281 889.132812 805.796875 887.957031 C 804.664062 885.71875 803.953125 876.964844 803.953125 879.101562 C 803.953125 921.914062 803.953125 964.730469 803.953125 1007.546875 Z M 803.953125 1007.546875 " fill-opacity="1" fill-rule="nonzero"/><path fill="#61edbf" d="M 785.191406 998.175781 C 785.191406 999.472656 785.839844 1009.882812 786.894531 1013.839844 C 787.421875 1015.871094 788.046875 1016.269531 788.738281 1014.363281 C 789.429688 1012.5625 790.207031 1008.457031 791 1003.988281 C 791.808594 999.515625 792.5625 995.085938 793.261719 992.699219 C 793.976562 990.207031 794.59375 989.757812 795.117188 990.730469 C 796.171875 992.585938 796.824219 1000.082031 796.824219 998.175781 C 796.824219 961.601562 796.824219 925.046875 796.824219 888.472656 C 796.824219 887.164062 796.171875 876.765625 795.117188 872.808594 C 794.59375 870.777344 793.976562 870.378906 793.261719 872.285156 C 792.570312 874.085938 791.808594 878.1875 791 882.660156 C 790.207031 887.132812 789.441406 891.558594 788.738281 893.957031 C 788.046875 896.449219 787.410156 896.902344 786.894531 895.925781 C 785.839844 894.074219 785.199219 886.574219 785.191406 888.480469 C 785.191406 925.046875 785.191406 961.601562 785.191406 998.175781 Z M 785.191406 998.175781 " fill-opacity="1" fill-rule="nonzero"/><path fill="#61edbf" d="M 766.667969 992.511719 C 766.667969 993.914062 767.304688 1002.332031 768.34375 1005.652344 C 768.855469 1007.359375 769.472656 1007.765625 770.152344 1006.351562 C 770.832031 1005.023438 771.578125 1001.882812 772.363281 998.40625 C 773.148438 994.941406 773.902344 991.464844 774.570312 989.546875 C 775.253906 987.535156 775.871094 987.085938 776.382812 987.726562 C 777.410156 988.910156 778.046875 994.375 778.046875 992.511719 C 778.046875 965.066406 778.046875 937.621094 778.046875 910.175781 C 778.046875 908.785156 777.410156 900.367188 776.382812 897.035156 C 775.871094 895.339844 775.253906 894.933594 774.570312 896.335938 C 773.890625 897.664062 773.136719 900.804688 772.363281 904.273438 C 771.578125 907.738281 770.832031 911.214844 770.152344 913.140625 C 769.472656 915.152344 768.855469 915.601562 768.34375 914.972656 C 767.316406 913.789062 766.667969 908.324219 766.667969 910.175781 C 766.667969 937.632812 766.667969 965.078125 766.667969 992.511719 Z M 766.667969 992.511719 " fill-opacity="1" fill-rule="nonzero"/><path fill="#61edbf" d="M 748.050781 972.972656 C 748.050781 974.195312 748.6875 979.777344 749.734375 981.777344 C 750.773438 984.132812 752.207031 982.910156 753.789062 978.710938 C 755.367188 974.511719 756.804688 972.007812 757.851562 972.28125 C 758.886719 972.207031 759.535156 974.910156 759.535156 972.972656 C 759.535156 960.125 759.535156 947.296875 759.535156 934.449219 C 759.535156 933.214844 758.886719 927.644531 757.851562 925.632812 C 756.804688 923.289062 755.367188 924.5 753.789062 928.699219 C 752.207031 932.898438 750.773438 935.402344 749.734375 935.128906 C 748.6875 935.214844 748.050781 932.5 748.050781 934.449219 C 748.050781 947.296875 748.050781 960.132812 748.050781 972.972656 Z M 748.050781 972.972656 " fill-opacity="1" fill-rule="nonzero"/><path fill="#61edbf" d="M 882.621094 719.597656 C 882.621094 720.589844 883.3125 728.476562 884.453125 729.039062 C 885.019531 729.375 885.691406 727.816406 886.433594 723.867188 C 887.1875 720.015625 888.003906 713.761719 888.863281 706.976562 C 888.882812 706.84375 888.894531 706.695312 888.925781 706.550781 C 889.785156 699.785156 890.601562 693.273438 891.355469 688.9375 C 892.097656 684.527344 892.777344 682.289062 893.332031 681.785156 C 894.464844 680.695312 895.167969 686.265625 895.167969 684.71875 C 895.167969 659.050781 895.167969 633.386719 895.167969 607.714844 C 895.167969 606.71875 894.464844 598.84375 893.332031 598.257812 C 892.769531 597.933594 892.097656 599.484375 891.355469 603.429688 C 890.609375 607.292969 889.792969 613.546875 888.925781 620.308594 C 888.894531 620.457031 888.882812 620.613281 888.863281 620.738281 C 888.003906 627.515625 887.1875 634.027344 886.433594 638.351562 C 885.691406 642.769531 885.019531 645 884.453125 645.515625 C 883.324219 646.613281 882.621094 641.03125 882.621094 642.59375 C 882.621094 668.257812 882.621094 693.921875 882.621094 719.597656 Z M 882.621094 719.597656 " fill-opacity="1" fill-rule="nonzero"/><path fill="#61edbf" d="M 862.988281 758.734375 C 862.988281 760.695312 863.691406 776.203125 864.820312 777.332031 C 865.375 777.980469 866.058594 774.914062 866.800781 767.132812 C 867.542969 759.554688 868.359375 747.21875 869.230469 733.910156 C 869.25 733.617188 869.269531 733.34375 869.292969 733.0625 C 870.152344 719.710938 870.976562 706.90625 871.722656 698.402344 C 872.464844 689.710938 873.144531 685.292969 873.699219 684.308594 C 874.832031 682.160156 875.53125 693.136719 875.53125 690.078125 C 875.53125 639.554688 875.53125 589.035156 875.53125 538.511719 C 875.53125 536.554688 874.832031 521.046875 873.699219 519.902344 C 873.144531 519.253906 872.464844 522.332031 871.722656 530.113281 C 870.976562 537.695312 870.160156 549.996094 869.292969 563.347656 C 869.269531 563.640625 869.25 563.902344 869.230469 564.195312 C 868.371094 577.515625 867.542969 590.351562 866.800781 598.84375 C 866.058594 607.535156 865.375 611.933594 864.820312 612.929688 C 863.691406 615.085938 862.988281 604.121094 862.988281 607.179688 C 862.988281 657.703125 862.988281 708.222656 862.988281 758.734375 Z M 862.988281 758.734375 " fill-opacity="1" fill-rule="nonzero"/><path fill="#61edbf" d="M 843.3125 817.929688 C 843.3125 819.761719 844.003906 834.292969 845.144531 835.339844 C 845.710938 835.949219 846.382812 833.070312 847.125 825.792969 C 847.867188 818.691406 848.695312 807.164062 849.554688 794.652344 C 849.566406 794.367188 849.597656 794.128906 849.617188 793.855469 C 850.476562 781.386719 851.292969 769.34375 852.046875 761.386719 C 852.789062 753.238281 853.460938 749.125 854.027344 748.191406 C 855.15625 746.179688 855.859375 756.464844 855.859375 753.59375 C 855.859375 706.265625 855.859375 658.925781 855.859375 611.585938 C 855.859375 609.753906 855.15625 595.230469 854.027344 594.152344 C 853.460938 593.546875 852.789062 596.414062 852.046875 603.691406 C 851.304688 610.792969 850.476562 622.351562 849.617188 634.824219 C 849.597656 635.09375 849.574219 635.347656 849.554688 635.617188 C 848.695312 648.121094 847.867188 660.132812 847.125 668.089844 C 846.382812 676.234375 845.710938 680.351562 845.144531 681.292969 C 844.015625 683.324219 843.3125 673.03125 843.3125 675.902344 C 843.3125 723.261719 843.3125 770.601562 843.3125 817.929688 Z M 843.3125 817.929688 " fill-opacity="1" fill-rule="nonzero"/><path fill="#61edbf" d="M 823.640625 838.398438 C 823.640625 839.75 824.339844 850.410156 825.472656 851.183594 C 826.035156 851.632812 826.695312 849.519531 827.449219 844.167969 C 828.203125 838.933594 829.03125 830.460938 829.878906 821.3125 C 829.902344 821.113281 829.921875 820.933594 829.941406 820.734375 C 830.800781 811.550781 831.617188 802.734375 832.371094 796.890625 C 833.113281 790.914062 833.796875 787.875 834.359375 787.195312 C 835.492188 785.71875 836.195312 793.269531 836.195312 791.164062 C 836.195312 756.402344 836.195312 721.648438 836.195312 686.882812 C 836.195312 685.535156 835.492188 674.875 834.359375 674.078125 C 833.796875 673.628906 833.113281 675.753906 832.371094 681.105469 C 831.628906 686.320312 830.8125 694.789062 829.941406 703.960938 C 829.921875 704.160156 829.902344 704.339844 829.878906 704.550781 C 829.019531 713.699219 828.203125 722.515625 827.449219 728.390625 C 826.707031 734.371094 826.035156 737.394531 825.472656 738.078125 C 824.339844 739.5625 823.640625 732.015625 823.640625 734.117188 C 823.640625 768.882812 823.640625 803.644531 823.640625 838.398438 Z M 823.640625 838.398438 " fill-opacity="1" fill-rule="nonzero"/><path fill="#61edbf" d="M 803.953125 790.890625 C 803.953125 792.234375 804.664062 802.914062 805.796875 803.6875 C 806.351562 804.136719 807.023438 802.023438 807.777344 796.671875 C 808.519531 791.457031 809.335938 782.996094 810.203125 773.8125 C 810.226562 773.617188 810.234375 773.4375 810.269531 773.226562 C 811.125 764.078125 811.941406 755.25 812.695312 749.386719 C 813.441406 743.40625 814.109375 740.378906 814.675781 739.699219 C 815.816406 738.203125 816.519531 745.761719 816.519531 743.65625 C 816.519531 708.90625 816.519531 674.140625 816.519531 639.386719 C 816.519531 638.039062 815.816406 627.367188 814.675781 626.59375 C 814.109375 626.140625 813.449219 628.257812 812.695312 633.609375 C 811.941406 638.84375 811.125 647.304688 810.269531 656.464844 C 810.246094 656.664062 810.226562 656.84375 810.203125 657.042969 C 809.335938 666.226562 808.519531 675.042969 807.777344 680.882812 C 807.03125 686.863281 806.363281 689.890625 805.796875 690.570312 C 804.664062 692.058594 803.953125 684.507812 803.953125 686.613281 C 803.953125 721.375 803.953125 756.140625 803.953125 790.890625 Z M 803.953125 790.890625 " fill-opacity="1" fill-rule="nonzero"/><path fill="#61edbf" d="M 784.332031 757.824219 C 784.332031 758.726562 785.023438 765.847656 786.152344 766.371094 C 786.730469 766.664062 787.398438 765.257812 788.140625 761.6875 C 788.886719 758.191406 789.703125 752.546875 790.570312 746.421875 C 790.582031 746.308594 790.601562 746.171875 790.613281 746.046875 C 791.472656 739.941406 792.300781 734.046875 793.042969 730.128906 C 793.785156 726.128906 794.46875 724.128906 795.023438 723.660156 C 796.152344 722.675781 796.855469 727.710938 796.855469 726.308594 C 796.855469 703.113281 796.855469 679.921875 796.855469 656.726562 C 796.855469 655.828125 796.164062 648.707031 795.023438 648.183594 C 794.46875 647.890625 793.785156 649.292969 793.042969 652.875 C 792.300781 656.363281 791.472656 662.015625 790.613281 668.132812 C 790.601562 668.246094 790.582031 668.382812 790.570312 668.507812 C 789.703125 674.632812 788.886719 680.519531 788.140625 684.414062 C 787.398438 688.421875 786.730469 690.421875 786.152344 690.894531 C 785.023438 691.878906 784.332031 686.84375 784.332031 688.246094 C 784.332031 711.4375 784.332031 734.632812 784.332031 757.824219 Z M 784.332031 757.824219 " fill-opacity="1" fill-rule="nonzero"/><path fill="#61edbf" d="M 764.644531 770.640625 C 764.644531 771.992188 765.335938 782.640625 766.476562 783.4375 C 767.042969 783.867188 767.714844 781.761719 768.457031 776.410156 C 769.210938 771.164062 770.027344 762.703125 770.886719 753.542969 C 770.898438 753.363281 770.917969 753.164062 770.9375 752.957031 C 771.796875 743.792969 772.613281 734.976562 773.367188 729.132812 C 774.113281 723.136719 774.792969 720.128906 775.355469 719.417969 C 776.488281 717.953125 777.191406 725.5 777.191406 723.398438 C 777.191406 688.632812 777.191406 653.878906 777.191406 619.117188 C 777.191406 617.765625 776.488281 607.105469 775.355469 606.300781 C 774.792969 605.871094 774.113281 607.976562 773.378906 613.316406 C 772.625 618.550781 771.808594 627.023438 770.949219 636.183594 C 770.929688 636.382812 770.917969 636.582031 770.898438 636.761719 C 770.039062 645.921875 769.222656 654.738281 768.46875 660.613281 C 767.722656 666.589844 767.054688 669.617188 766.488281 670.320312 C 765.359375 671.796875 764.65625 664.246094 764.65625 666.351562 C 764.644531 701.125 764.644531 735.878906 764.644531 770.640625 Z M 764.644531 770.640625 " fill-opacity="1" fill-rule="nonzero"/><path fill="#61edbf" d="M 744.40625 712.253906 C 744.414062 713.605469 745.117188 724.277344 746.25 725.0625 C 746.8125 725.492188 747.472656 723.398438 748.226562 718.046875 C 748.980469 712.808594 749.796875 704.339844 750.65625 695.167969 C 750.667969 694.976562 750.6875 694.78125 750.71875 694.601562 C 751.578125 685.417969 752.40625 676.601562 753.148438 670.757812 C 753.902344 664.757812 754.5625 661.753906 755.128906 661.0625 C 756.257812 659.578125 756.96875 667.125 756.96875 665.019531 C 756.96875 630.257812 756.96875 595.503906 756.96875 560.742188 C 756.96875 559.390625 756.257812 548.71875 755.128906 547.957031 C 754.574219 547.515625 753.902344 549.601562 753.148438 554.972656 C 752.40625 560.1875 751.578125 568.644531 750.71875 577.828125 C 750.699219 578.019531 750.675781 578.207031 750.65625 578.394531 C 749.796875 587.578125 748.980469 596.394531 748.226562 602.257812 C 747.484375 608.238281 746.8125 611.242188 746.25 611.945312 C 745.117188 613.429688 744.40625 605.871094 744.40625 607.976562 C 744.40625 642.738281 744.40625 677.503906 744.40625 712.253906 Z M 744.40625 712.253906 " fill-opacity="1" fill-rule="nonzero"/><path fill="#61edbf" d="M 725.578125 876.804688 C 725.578125 877.59375 726.238281 903.980469 727.296875 913.152344 C 727.828125 917.851562 728.457031 918.21875 729.160156 912.386719 C 729.859375 906.859375 730.636719 895.121094 731.433594 882.660156 C 732.238281 870.199219 733.011719 858.136719 733.714844 852.023438 C 734.40625 845.59375 735.054688 845.101562 735.566406 848.753906 C 736.636719 855.800781 737.285156 879.265625 737.285156 876.828125 C 737.285156 768.011719 737.285156 659.210938 737.285156 550.394531 C 737.285156 549.609375 736.636719 523.222656 735.566406 514.050781 C 735.054688 509.339844 734.40625 508.984375 733.714844 514.816406 C 733.023438 520.355469 732.25 532.082031 731.433594 544.542969 C 730.636719 557.003906 729.859375 569.066406 729.160156 575.191406 C 728.457031 581.609375 727.828125 582.113281 727.296875 578.457031 C 726.238281 571.410156 725.578125 547.933594 725.578125 550.386719 C 725.578125 659.1875 725.578125 768.003906 725.578125 876.804688 Z M 725.578125 876.804688 " fill-opacity="1" fill-rule="nonzero"/><path fill="#61edbf" d="M 706.761719 906.21875 C 706.761719 907.066406 707.410156 935.789062 708.457031 945.777344 C 709.003906 950.898438 709.632812 951.296875 710.324219 944.941406 C 711.023438 938.910156 711.796875 926.144531 712.605469 912.574219 C 713.402344 899.003906 714.175781 885.886719 714.867188 879.214844 C 715.566406 872.21875 716.195312 871.6875 716.730469 875.65625 C 717.777344 883.320312 718.4375 908.867188 718.4375 906.210938 C 718.4375 787.773438 718.4375 669.335938 718.4375 550.898438 C 718.4375 550.039062 717.789062 521.328125 716.730469 511.339844 C 716.195312 506.207031 715.566406 505.820312 714.867188 512.175781 C 714.175781 518.195312 713.402344 530.960938 712.605469 544.53125 C 711.789062 558.101562 711.023438 571.222656 710.324219 577.890625 C 709.632812 584.886719 708.992188 585.421875 708.457031 581.453125 C 707.410156 573.789062 706.761719 548.238281 706.761719 550.898438 C 706.761719 669.335938 706.761719 787.78125 706.761719 906.21875 Z M 706.761719 906.21875 " fill-opacity="1" fill-rule="nonzero"/><path fill="#61edbf" d="M 687.925781 921.757812 C 687.925781 922.574219 688.585938 950.15625 689.640625 959.738281 C 690.175781 964.65625 690.804688 965.035156 691.507812 958.929688 C 692.195312 953.148438 692.972656 940.890625 693.777344 927.863281 C 694.585938 914.828125 695.359375 902.230469 696.050781 895.832031 C 696.75 889.109375 697.378906 888.597656 697.902344 892.417969 C 698.960938 899.78125 699.621094 924.3125 699.621094 921.757812 C 699.621094 808.023438 699.621094 694.296875 699.621094 580.5625 C 699.621094 579.746094 698.972656 552.164062 697.902344 542.574219 C 697.378906 537.652344 696.75 537.277344 696.050781 543.378906 C 695.359375 549.171875 694.585938 561.421875 693.777344 574.449219 C 692.972656 587.472656 692.195312 600.082031 691.507812 606.476562 C 690.792969 613.199219 690.175781 613.714844 689.640625 609.902344 C 688.585938 602.539062 687.925781 578.007812 687.925781 580.5625 C 687.925781 694.296875 687.925781 808.035156 687.925781 921.757812 Z M 687.925781 921.757812 " fill-opacity="1" fill-rule="nonzero"/><path fill="#61edbf" d="M 669.90625 932.398438 C 669.90625 933.582031 670.523438 944.648438 671.507812 948.792969 C 672 950.921875 672.585938 951.285156 673.234375 949.171875 C 673.894531 947.183594 674.605469 942.691406 675.359375 937.832031 C 676.101562 932.972656 676.824219 928.1875 677.476562 925.632812 C 678.125 922.960938 678.699219 922.542969 679.191406 923.683594 C 680.1875 925.863281 680.785156 934.21875 680.785156 932.398438 C 680.785156 892.082031 680.785156 851.78125 680.785156 811.476562 C 680.785156 810.296875 680.175781 799.226562 679.191406 795.082031 C 678.699219 792.957031 678.125 792.589844 677.476562 794.703125 C 676.816406 796.703125 676.101562 801.183594 675.359375 806.035156 C 674.605469 810.890625 673.894531 815.675781 673.234375 818.230469 C 672.59375 820.902344 672.007812 821.320312 671.507812 820.179688 C 670.53125 818.011719 669.90625 809.644531 669.90625 811.476562 C 669.90625 851.78125 669.90625 892.09375 669.90625 932.398438 Z M 669.90625 932.398438 " fill-opacity="1" fill-rule="nonzero"/><path fill="#61edbf" d="M 651.382812 941.863281 C 651.382812 943.121094 651.988281 954.960938 652.972656 959.402344 C 653.464844 961.671875 654.050781 962.070312 654.699219 959.808594 C 655.359375 957.675781 656.074219 952.878906 656.828125 947.683594 C 657.570312 942.480469 658.292969 937.359375 658.941406 934.648438 C 659.601562 931.800781 660.175781 931.339844 660.667969 932.554688 C 661.652344 934.878906 662.261719 943.820312 662.261719 941.875 C 662.261719 898.753906 662.261719 855.644531 662.261719 812.535156 C 662.261719 811.28125 661.652344 799.425781 660.667969 794.996094 C 660.175781 792.726562 659.589844 792.328125 658.941406 794.589844 C 658.292969 796.726562 657.582031 801.519531 656.828125 806.722656 C 656.074219 811.917969 655.359375 817.039062 654.699219 819.761719 C 654.050781 822.609375 653.476562 823.058594 652.972656 821.855469 C 652 819.53125 651.382812 810.589844 651.382812 812.546875 C 651.382812 855.632812 651.382812 898.742188 651.382812 941.863281 Z M 651.382812 941.863281 " fill-opacity="1" fill-rule="nonzero"/><path fill="#61edbf" d="M 633.371094 947.832031 C 633.371094 949.097656 633.980469 961.066406 634.960938 965.546875 C 635.453125 967.839844 636.042969 968.238281 636.691406 965.957031 C 637.339844 963.800781 638.050781 958.953125 638.804688 953.707031 C 639.550781 948.449219 640.273438 943.277344 640.921875 940.53125 C 641.570312 937.652344 642.15625 937.191406 642.648438 938.429688 C 643.632812 940.773438 644.238281 949.808594 644.238281 947.832031 C 644.238281 904.28125 644.238281 860.722656 644.238281 817.164062 C 644.238281 815.898438 643.632812 803.929688 642.648438 799.445312 C 642.15625 797.152344 641.570312 796.757812 640.921875 799.039062 C 640.273438 801.195312 639.550781 806.042969 638.804688 811.289062 C 638.0625 816.535156 637.339844 821.71875 636.691406 824.472656 C 636.03125 827.351562 635.453125 827.8125 634.960938 826.578125 C 633.980469 824.230469 633.371094 815.195312 633.371094 817.164062 C 633.371094 860.722656 633.371094 904.28125 633.371094 947.832031 Z M 633.371094 947.832031 " fill-opacity="1" fill-rule="nonzero"/><path fill="#61edbf" d="M 615.359375 945.714844 C 615.359375 946.941406 615.96875 958.40625 616.953125 962.710938 C 617.445312 964.910156 618.03125 965.296875 618.679688 963.109375 C 619.328125 961.046875 620.042969 956.394531 620.796875 951.359375 C 621.550781 946.324219 622.261719 941.359375 622.921875 938.722656 C 623.558594 935.96875 624.144531 935.515625 624.648438 936.699219 C 625.621094 938.953125 626.242188 947.609375 626.242188 945.714844 C 626.242188 903.957031 626.242188 862.1875 626.242188 820.429688 C 626.242188 819.207031 625.621094 807.738281 624.648438 803.4375 C 624.15625 801.238281 623.570312 800.859375 622.921875 803.050781 C 622.261719 805.121094 621.550781 809.773438 620.796875 814.796875 C 620.050781 819.835938 619.328125 824.796875 618.679688 827.425781 C 618.03125 830.191406 617.445312 830.621094 616.953125 829.445312 C 615.957031 827.195312 615.359375 818.535156 615.359375 820.429688 C 615.359375 862.1875 615.359375 903.957031 615.359375 945.714844 Z M 615.359375 945.714844 " fill-opacity="1" fill-rule="nonzero"/><path fill="#61edbf" d="M 597.65625 942.398438 C 597.65625 943.558594 598.25 953.894531 599.203125 957.777344 C 599.6875 959.769531 600.25 960.125 600.878906 958.175781 C 601.507812 956.332031 602.210938 952.1875 602.933594 947.675781 C 603.664062 943.160156 604.367188 938.722656 604.996094 936.34375 C 605.625 933.863281 606.1875 933.453125 606.671875 934.480469 C 607.632812 936.460938 608.21875 944.144531 608.21875 942.386719 C 608.21875 905.152344 608.21875 867.9375 608.21875 830.703125 C 608.21875 829.539062 607.625 819.207031 606.671875 815.320312 C 606.1875 813.332031 605.625 812.976562 604.996094 814.921875 C 604.367188 816.765625 603.664062 820.914062 602.933594 825.425781 C 602.210938 829.929688 601.507812 834.378906 600.878906 836.753906 C 600.25 839.238281 599.675781 839.644531 599.203125 838.617188 C 598.25 836.640625 597.65625 828.953125 597.65625 830.714844 C 597.65625 867.9375 597.65625 905.160156 597.65625 942.398438 Z M 597.65625 942.398438 " fill-opacity="1" fill-rule="nonzero"/><path fill="#61edbf" d="M 580.671875 938.398438 C 580.671875 939.515625 581.214844 948.1875 582.117188 951.496094 C 582.554688 953.191406 583.089844 953.539062 583.675781 951.945312 C 584.273438 950.460938 584.910156 947.046875 585.59375 943.328125 C 586.273438 939.613281 586.921875 935.925781 587.507812 933.9375 C 588.09375 931.851562 588.628906 931.476562 589.070312 932.28125 C 589.957031 933.808594 590.511719 940.019531 590.511719 938.40625 C 590.511719 908.0625 590.511719 877.707031 590.511719 847.339844 C 590.511719 846.230469 589.96875 837.5625 589.070312 834.253906 C 588.628906 832.554688 588.085938 832.222656 587.507812 833.800781 C 586.910156 835.300781 586.273438 838.703125 585.59375 842.429688 C 584.910156 846.148438 584.261719 849.832031 583.675781 851.824219 C 583.089844 853.90625 582.554688 854.285156 582.117188 853.476562 C 581.226562 851.960938 580.671875 845.738281 580.671875 847.351562 C 580.671875 877.6875 580.671875 908.050781 580.671875 938.398438 Z M 580.671875 938.398438 " fill-opacity="1" fill-rule="nonzero"/><path fill="#61edbf" d="M 563.183594 926.367188 C 563.183594 927.558594 563.761719 934.105469 564.703125 936.730469 C 565.164062 938.082031 565.730469 938.417969 566.335938 937.371094 C 566.964844 936.375 567.632812 933.988281 568.347656 931.339844 C 569.058594 928.691406 569.738281 926.019531 570.355469 924.523438 C 570.976562 922.972656 571.539062 922.585938 572 923.035156 C 572.933594 923.863281 573.519531 927.914062 573.519531 926.367188 C 573.519531 905.695312 573.519531 885.027344 573.519531 864.367188 C 573.519531 863.171875 572.945312 856.628906 572 854 C 571.53125 852.660156 570.976562 852.316406 570.355469 853.363281 C 569.738281 854.355469 569.058594 856.746094 568.347656 859.394531 C 567.632812 862.042969 566.953125 864.710938 566.335938 866.210938 C 565.730469 867.757812 565.164062 868.148438 564.703125 867.707031 C 563.761719 866.878906 563.183594 862.816406 563.183594 864.367188 C 563.183594 885.027344 563.183594 905.695312 563.183594 926.367188 Z M 563.183594 926.367188 " fill-opacity="1" fill-rule="nonzero"/><g clip-path="url(#09c7aad64b)"><path fill="#61edbf" d="M 545.699219 907.402344 C 545.699219 908.605469 546.273438 912.605469 547.214844 914.167969 C 548.160156 915.957031 549.445312 915.328125 550.871094 912.574219 C 552.304688 909.820312 553.59375 908.03125 554.523438 907.957031 C 555.46875 907.652344 556.042969 909.058594 556.042969 907.402344 C 556.042969 899.957031 556.042969 892.503906 556.042969 885.046875 C 556.054688 883.855469 555.46875 879.84375 554.523438 878.28125 C 553.59375 876.480469 552.292969 877.121094 550.871094 879.875 C 549.4375 882.628906 548.160156 884.417969 547.214844 884.492188 C 546.273438 884.804688 545.699219 883.394531 545.699219 885.046875 C 545.699219 892.503906 545.699219 899.957031 545.699219 907.402344 Z M 545.699219 907.402344 " fill-opacity="1" fill-rule="nonzero"/></g></svg>