<svg xmlns="http://www.w3.org/2000/svg" xmlns:xlink="http://www.w3.org/1999/xlink" width="2000" zoomAndPan="magnify" viewBox="0 0 1500 1499.999933" height="2000" preserveAspectRatio="xMidYMid meet" version="1.0"><defs><g/><clipPath id="ce30a4fde1"><path d="M 289 418 L 521 418 L 521 733.96875 L 289 733.96875 Z M 289 418 " clip-rule="nonzero"/></clipPath><clipPath id="d3307c465d"><path d="M 651 340.96875 L 913 340.96875 L 913 733.96875 L 651 733.96875 Z M 651 340.96875 " clip-rule="nonzero"/></clipPath><clipPath id="0588958d47"><path d="M 1056 628 L 1323 628 L 1323 733.96875 L 1056 733.96875 Z M 1056 628 " clip-rule="nonzero"/></clipPath><clipPath id="95855e3336"><path d="M 855 340.96875 L 1144 340.96875 L 1144 732 L 855 732 Z M 855 340.96875 " clip-rule="nonzero"/></clipPath><clipPath id="a2546faed3"><path d="M 469 418 L 703 418 L 703 733.96875 L 469 733.96875 Z M 469 418 " clip-rule="nonzero"/></clipPath><clipPath id="8c83727665"><path d="M 177 645 L 326 645 L 326 733.96875 L 177 733.96875 Z M 177 645 " clip-rule="nonzero"/></clipPath><clipPath id="3c14806461"><rect x="0" width="1151" y="0" height="346"/></clipPath></defs><g clip-path="url(#ce30a4fde1)"><path fill="#5dd3d6" d="M 449.28125 418.199219 L 447.316406 418.199219 C 447.316406 418.199219 419.765625 414.207031 400.675781 449.410156 C 371.515625 503.289062 349.503906 703.320312 289.460938 733.9375 L 444.339844 733.460938 C 444.339844 733.460938 477.101562 723.722656 495.984375 642.171875 C 502.089844 615.695312 511.886719 585.109375 520.765625 555.414062 C 507.003906 473.507812 479.542969 428.917969 449.28125 418.199219 Z M 449.28125 418.199219 " fill-opacity="1" fill-rule="nonzero"/></g><g clip-path="url(#d3307c465d)"><path fill="#5dd3d6" d="M 834.925781 340.96875 L 828.96875 340.96875 C 828.96875 340.96875 798.410156 337.09375 777.292969 372.300781 C 745.007812 426.179688 715.9375 713.386719 651.398438 733.285156 L 825.695312 733.433594 C 825.695312 733.433594 861.941406 723.691406 882.9375 642.144531 C 890.683594 611.882812 901.015625 566.730469 912.722656 520.503906 C 892.765625 435.5625 868.582031 351.988281 834.925781 340.96875 Z M 834.925781 340.96875 " fill-opacity="1" fill-rule="nonzero"/></g><g clip-path="url(#0588958d47)"><path fill="#5dd3d6" d="M 1175.0625 629.070312 C 1175.0625 629.070312 1111.175781 723.902344 1056.996094 733.3125 L 1216.757812 733.3125 C 1219.109375 733.132812 1221.445312 732.824219 1223.761719 732.394531 C 1226.082031 731.964844 1228.371094 731.410156 1230.628906 730.738281 C 1232.890625 730.0625 1235.109375 729.273438 1237.28125 728.363281 C 1239.457031 727.453125 1241.578125 726.429688 1243.644531 725.292969 C 1245.710938 724.15625 1247.714844 722.914062 1249.648438 721.566406 C 1251.582031 720.21875 1253.4375 718.769531 1255.21875 717.222656 C 1257 715.679688 1258.695312 714.042969 1260.300781 712.316406 C 1261.90625 710.589844 1263.417969 708.78125 1264.828125 706.894531 C 1269.984375 699.894531 1302.953125 657.453125 1322.730469 628.949219 L 1175.0625 628.949219 " fill-opacity="1" fill-rule="nonzero"/></g><g clip-path="url(#95855e3336)"><path fill="#5dd3d6" d="M 1028.078125 730.871094 C 1071.828125 724.617188 1123.386719 670.558594 1143.816406 643.1875 C 1122.371094 574.234375 1097.234375 482.144531 1084.25 432.226562 C 1063.398438 350.648438 1027.152344 340.96875 1027.152344 340.96875 L 855.746094 340.96875 C 916.328125 376.410156 928.152344 579.390625 973.035156 702.128906 C 986.945312 740.074219 1028.078125 730.871094 1028.078125 730.871094 Z M 1028.078125 730.871094 " fill-opacity="1" fill-rule="nonzero"/></g><g clip-path="url(#a2546faed3)"><path fill="#5dd3d6" d="M 702.625 596.902344 C 693.867188 567.652344 683.355469 535.367188 677.308594 509.308594 C 658.394531 427.757812 625.691406 418.046875 625.691406 418.046875 L 469.179688 418.046875 C 530.324219 435.917969 545.304688 645.6875 582.03125 702.097656 C 603.863281 735.605469 628.613281 733.285156 628.613281 733.285156 L 632.277344 733.285156 C 660.539062 724.167969 683.148438 666.417969 702.625 596.902344 Z M 702.625 596.902344 " fill-opacity="1" fill-rule="nonzero"/></g><g clip-path="url(#8c83727665)"><path fill="#5dd3d6" d="M 325.917969 645.6875 L 177.292969 645.6875 C 199.929688 705.523438 245.796875 731.882812 266.644531 733.910156 C 288.625 725.6875 311.144531 689.621094 325.917969 645.6875 Z M 325.917969 645.6875 " fill-opacity="1" fill-rule="nonzero"/></g><g transform="matrix(1, 0, 0, 1, 175, 676)"><g clip-path="url(#3c14806461)"><g fill="#5dd3d6" fill-opacity="1"><g transform="translate(0.204296, 271.086631)"><g><path d="M 9.8125 0 L 11.96875 -32.796875 C 12.289062 -39.015625 12.769531 -46.910156 13.40625 -56.484375 C 13.40625 -56.640625 15 -84.484375 18.1875 -140.015625 L 72.515625 -140.015625 L 101.71875 -48.109375 L 130.921875 -140.015625 L 185.25 -140.015625 C 186.53125 -120.390625 187.488281 -104.191406 188.125 -91.421875 C 189.394531 -68.285156 190.59375 -48.742188 191.71875 -32.796875 C 191.875 -29.597656 192.070312 -25.644531 192.3125 -20.9375 C 192.550781 -16.226562 192.828125 -11.757812 193.140625 -7.53125 C 193.460938 -3.3125 193.625 -0.800781 193.625 0 L 160.84375 0 L 154.140625 -112.015625 L 118.46875 0 L 84.96875 0 L 49.3125 -112.015625 L 42.609375 0 Z M 9.8125 0 "/></g></g></g><g fill="#5dd3d6" fill-opacity="1"><g transform="translate(202.451023, 271.086631)"><g><path d="M 110.8125 -13.15625 C 100.925781 -3.425781 86.164062 1.4375 66.53125 1.4375 C 46.90625 1.4375 32.144531 -3.425781 22.25 -13.15625 C 12.363281 -22.894531 7.421875 -35.582031 7.421875 -51.21875 C 7.421875 -66.851562 12.363281 -79.578125 22.25 -89.390625 C 32.144531 -99.203125 46.90625 -104.109375 66.53125 -104.109375 C 86.164062 -104.109375 100.925781 -99.203125 110.8125 -89.390625 C 120.707031 -79.578125 125.65625 -66.851562 125.65625 -51.21875 C 125.65625 -35.582031 120.707031 -22.894531 110.8125 -13.15625 Z M 66.53125 -21.78125 C 74.675781 -21.78125 81.179688 -24.171875 86.046875 -28.953125 C 90.910156 -33.742188 93.34375 -41.164062 93.34375 -51.21875 C 93.34375 -61.269531 90.867188 -68.726562 85.921875 -73.59375 C 80.972656 -78.457031 74.507812 -80.890625 66.53125 -80.890625 C 58.71875 -80.890625 52.296875 -78.414062 47.265625 -73.46875 C 42.242188 -68.53125 39.734375 -61.113281 39.734375 -51.21875 C 39.734375 -41.320312 42.242188 -33.941406 47.265625 -29.078125 C 52.296875 -24.210938 58.71875 -21.78125 66.53125 -21.78125 Z M 66.53125 -21.78125 "/></g></g></g><g fill="#5dd3d6" fill-opacity="1"><g transform="translate(334.330243, 271.086631)"><g><path d="M 110.8125 -13.15625 C 100.925781 -3.425781 86.164062 1.4375 66.53125 1.4375 C 46.90625 1.4375 32.144531 -3.425781 22.25 -13.15625 C 12.363281 -22.894531 7.421875 -35.582031 7.421875 -51.21875 C 7.421875 -66.851562 12.363281 -79.578125 22.25 -89.390625 C 32.144531 -99.203125 46.90625 -104.109375 66.53125 -104.109375 C 86.164062 -104.109375 100.925781 -99.203125 110.8125 -89.390625 C 120.707031 -79.578125 125.65625 -66.851562 125.65625 -51.21875 C 125.65625 -35.582031 120.707031 -22.894531 110.8125 -13.15625 Z M 66.53125 -21.78125 C 74.675781 -21.78125 81.179688 -24.171875 86.046875 -28.953125 C 90.910156 -33.742188 93.34375 -41.164062 93.34375 -51.21875 C 93.34375 -61.269531 90.867188 -68.726562 85.921875 -73.59375 C 80.972656 -78.457031 74.507812 -80.890625 66.53125 -80.890625 C 58.71875 -80.890625 52.296875 -78.414062 47.265625 -73.46875 C 42.242188 -68.53125 39.734375 -61.113281 39.734375 -51.21875 C 39.734375 -41.320312 42.242188 -33.941406 47.265625 -29.078125 C 52.296875 -24.210938 58.71875 -21.78125 66.53125 -21.78125 Z M 66.53125 -21.78125 "/></g></g></g><g fill="#5dd3d6" fill-opacity="1"><g transform="translate(467.406175, 271.086631)"><g><path d="M 51.21875 1.4375 C 38.457031 1.4375 27.96875 -3.742188 19.75 -14.109375 C 11.53125 -24.484375 7.421875 -37.015625 7.421875 -51.703125 C 7.421875 -67.648438 11.648438 -80.367188 20.109375 -89.859375 C 28.566406 -99.359375 40.53125 -104.109375 56 -104.109375 C 71.476562 -104.109375 83.285156 -100.039062 91.421875 -91.90625 L 91.421875 -140.015625 L 123.734375 -140.015625 L 123.734375 0 L 93.34375 0 L 91.421875 -11.734375 C 82.972656 -2.953125 69.570312 1.4375 51.21875 1.4375 Z M 63.671875 -21.78125 C 71.171875 -21.78125 77.671875 -23.894531 83.171875 -28.125 C 88.671875 -32.351562 91.421875 -37.578125 91.421875 -43.796875 L 91.421875 -59.828125 C 91.421875 -65.898438 88.828125 -70.925781 83.640625 -74.90625 C 78.460938 -78.894531 72.519531 -80.890625 65.8125 -80.890625 C 58.15625 -80.890625 51.894531 -78.773438 47.03125 -74.546875 C 42.164062 -70.328125 39.734375 -63.585938 39.734375 -54.328125 L 39.734375 -51.703125 C 39.734375 -42.921875 42.046875 -35.738281 46.671875 -30.15625 C 51.296875 -24.570312 56.960938 -21.78125 63.671875 -21.78125 Z M 63.671875 -21.78125 "/></g></g></g><g fill="#ffffff" fill-opacity="1"><g transform="translate(603.357789, 271.086631)"><g><path d="M 73.71875 1.4375 C 57.601562 1.4375 43.519531 -2.03125 31.46875 -8.96875 C 19.425781 -15.914062 12.925781 -26.085938 11.96875 -39.484375 L 35.65625 -39.484375 C 36.300781 -35.179688 37.9375 -31.472656 40.5625 -28.359375 C 43.195312 -25.242188 46.46875 -22.890625 50.375 -21.296875 C 54.289062 -19.703125 58.160156 -18.585938 61.984375 -17.953125 C 65.816406 -17.316406 69.804688 -17 73.953125 -17 C 79.859375 -17 84.566406 -17.117188 88.078125 -17.359375 C 91.585938 -17.597656 95.296875 -18.113281 99.203125 -18.90625 C 103.117188 -19.707031 106.113281 -20.863281 108.1875 -22.375 C 110.257812 -23.894531 111.972656 -26.050781 113.328125 -28.84375 C 114.679688 -31.632812 115.359375 -35.101562 115.359375 -39.25 C 115.359375 -41.164062 114.878906 -43 113.921875 -44.75 C 112.960938 -46.507812 111.367188 -48.023438 109.140625 -49.296875 C 106.910156 -50.578125 104.835938 -51.695312 102.921875 -52.65625 C 101.003906 -53.613281 98.25 -54.570312 94.65625 -55.53125 C 91.070312 -56.488281 88.398438 -57.207031 86.640625 -57.6875 C 84.890625 -58.164062 82.019531 -58.800781 78.03125 -59.59375 C 74.039062 -60.394531 71.644531 -60.875 70.84375 -61.03125 C 64.144531 -62.3125 58.398438 -63.585938 53.609375 -64.859375 C 48.828125 -66.140625 43.519531 -67.972656 37.6875 -70.359375 C 31.863281 -72.753906 27.15625 -75.390625 23.5625 -78.265625 C 19.976562 -81.140625 16.945312 -84.890625 14.46875 -89.515625 C 12 -94.140625 10.765625 -99.328125 10.765625 -105.078125 C 10.765625 -116.878906 15.394531 -125.972656 24.65625 -132.359375 C 35.019531 -139.222656 51.210938 -142.65625 73.234375 -142.65625 C 80.898438 -142.65625 88.125 -141.9375 94.90625 -140.5 C 101.6875 -139.0625 107.988281 -136.863281 113.8125 -133.90625 C 119.632812 -130.957031 124.378906 -126.847656 128.046875 -121.578125 C 131.710938 -116.316406 133.867188 -110.253906 134.515625 -103.390625 L 111.78125 -103.390625 C 111.132812 -117.273438 98.285156 -124.21875 73.234375 -124.21875 C 47.066406 -124.21875 33.984375 -117.835938 33.984375 -105.078125 C 33.984375 -101.566406 35.140625 -98.453125 37.453125 -95.734375 C 39.765625 -93.023438 43.472656 -90.710938 48.578125 -88.796875 C 53.691406 -86.878906 58.519531 -85.363281 63.0625 -84.25 C 67.613281 -83.132812 73.796875 -81.78125 81.609375 -80.1875 C 119.585938 -73.164062 138.578125 -60 138.578125 -40.6875 C 138.578125 -26.800781 133.429688 -16.304688 123.140625 -9.203125 C 112.847656 -2.109375 96.375 1.4375 73.71875 1.4375 Z M 73.71875 1.4375 "/></g></g></g><g fill="#ffffff" fill-opacity="1"><g transform="translate(746.72557, 271.086631)"><g><path d="M 19.390625 30.15625 C 23.054688 31.4375 26.722656 32.078125 30.390625 32.078125 C 43.640625 32.078125 50.265625 27.128906 50.265625 17.234375 C 50.265625 15.640625 49.304688 12.046875 47.390625 6.453125 C 45.472656 0.867188 44.035156 -2.957031 43.078125 -5.03125 L 4.78125 -101.71875 L 30.875 -101.71875 L 66.53125 -6.21875 L 102.203125 -101.71875 L 128.28125 -101.71875 L 86.640625 3.59375 C 79.941406 20.34375 72.84375 32.148438 65.34375 39.015625 C 57.84375 45.878906 48.425781 49.3125 37.09375 49.3125 C 30.71875 49.3125 26.488281 48.988281 24.40625 48.34375 C 21.539062 47.550781 19.867188 46.914062 19.390625 46.4375 Z M 19.390625 30.15625 "/></g></g></g><g fill="#ffffff" fill-opacity="1"><g transform="translate(879.801525, 271.086631)"><g><path d="M 37.578125 -85.203125 C 41.566406 -91.265625 47.429688 -95.734375 55.171875 -98.609375 C 62.910156 -101.484375 69.8125 -102.921875 75.875 -102.921875 C 108.90625 -102.921875 125.421875 -88 125.421875 -58.15625 L 125.421875 0 L 102.203125 0 L 102.203125 -51.9375 C 102.203125 -64.0625 99.765625 -72.515625 94.890625 -77.296875 C 90.023438 -82.085938 82.804688 -84.484375 73.234375 -84.484375 C 64.617188 -84.484375 56.519531 -81.332031 48.9375 -75.03125 C 41.363281 -68.726562 37.578125 -61.347656 37.578125 -52.890625 L 37.578125 0 L 14.359375 0 L 14.359375 -101.71875 L 35.421875 -101.71875 Z M 37.578125 -85.203125 "/></g></g></g><g fill="#ffffff" fill-opacity="1"><g transform="translate(1017.185664, 271.086631)"><g><path d="M 9.578125 -51.21875 C 9.578125 -66.695312 14.679688 -79.179688 24.890625 -88.671875 C 35.097656 -98.171875 50.253906 -102.921875 70.359375 -102.921875 C 86.003906 -102.921875 98.769531 -99.769531 108.65625 -93.46875 C 118.550781 -87.164062 124.054688 -79.144531 125.171875 -69.40625 L 100.53125 -69.40625 C 99.570312 -74.351562 96.140625 -78.101562 90.234375 -80.65625 C 84.328125 -83.207031 77.703125 -84.484375 70.359375 -84.484375 C 45.316406 -84.484375 32.796875 -73.394531 32.796875 -51.21875 C 32.796875 -28.40625 45.238281 -17 70.125 -17 C 77.78125 -17 84.476562 -18.15625 90.21875 -20.46875 C 95.96875 -22.78125 99.320312 -26.488281 100.28125 -31.59375 L 124.9375 -31.59375 C 124.613281 -21.539062 119.503906 -13.519531 109.609375 -7.53125 C 99.722656 -1.550781 86.5625 1.4375 70.125 1.4375 C 49.0625 1.4375 33.265625 -4.226562 22.734375 -15.5625 C 13.960938 -24.8125 9.578125 -36.695312 9.578125 -51.21875 Z M 9.578125 -51.21875 "/></g></g></g></g></g></svg>